<svg width="14" height="15" viewBox="0 0 14 15" fill="none" xmlns="http://www.w3.org/2000/svg">
<path d="M12.3571 6.5625H11.6607V4.45312C11.6607 1.99805 9.6817 0 7.25 0C4.8183 0 2.83929 1.99805 2.83929 4.45312V6.5625H2.14286C1.37388 6.5625 0.75 7.19238 0.75 7.96875V13.5938C0.75 14.3701 1.37388 15 2.14286 15H12.3571C13.1261 15 13.75 14.3701 13.75 13.5938V7.96875C13.75 7.19238 13.1261 6.5625 12.3571 6.5625ZM9.33929 6.5625H5.16071V4.45312C5.16071 3.29004 6.09799 2.34375 7.25 2.34375C8.40201 2.34375 9.33929 3.29004 9.33929 4.45312V6.5625Z" fill="black"/>
</svg>
