<svg width="172" height="30" viewBox="0 0 172 30" fill="none" xmlns="http://www.w3.org/2000/svg">
<rect x="0.5" y="0.5" width="171" height="29" rx="9.5" fill="white" stroke="black"/>
<path d="M24 14C24 19.5228 19.5228 24 14 24C8.47715 24 4 19.5228 4 14C4 8.47715 8.47715 4 14 4C19.5228 4 24 8.47715 24 14Z" fill="#FF0000"/>
<path d="M36.9108 16.07V17.96H38.8708V16.07H36.9108ZM39.6808 16.07V17.96H41.1308V18.62H34.6508V17.96H36.1008V16.07H34.7308V15.41H41.0508V16.07H39.6808ZM38.3008 13.86H41.9508V14.52H33.8408V13.86H37.4808V12.72H34.9308V9.97H35.7508V12.06H41.0308V12.72H38.3008V13.86ZM47.08 9.97C49.02 9.97 50.23 10.6 50.23 11.67C50.23 12.73 49.02 13.36 47.08 13.36C45.14 13.36 43.93 12.73 43.93 11.67C43.93 10.6 45.14 9.97 47.08 9.97ZM47.08 10.62C45.66 10.62 44.77 11.01 44.77 11.67C44.77 12.33 45.66 12.72 47.08 12.72C48.5 12.72 49.39 12.33 49.39 11.67C49.39 11.01 48.5 10.62 47.08 10.62ZM44.03 15.67H50.15V18.62H44.03V15.67ZM49.35 16.32H44.83V17.96H49.35V16.32ZM43.03 14.13H51.14V14.79H43.03V14.13Z" fill="black"/>
<path d="M82 14C82 19.5228 77.5228 24 72 24C66.4772 24 62 19.5228 62 14C62 8.47715 66.4772 4 72 4C77.5228 4 82 8.47715 82 14Z" fill="#FF9900"/>
<path d="M93.6008 12.68V14.33H98.1808V12.68H93.6008ZM96.3008 16.92H99.9608V17.59H91.8308V16.92H95.4708V14.99H92.7908V10.41H93.6008V12.01H98.1808V10.41H98.9808V14.99H96.3008V16.92ZM105.08 18.11C106.53 18.11 107.33 17.83 107.33 17.29C107.33 16.76 106.53 16.47 105.08 16.47C103.64 16.47 102.83 16.76 102.83 17.29C102.83 17.83 103.64 18.11 105.08 18.11ZM105.08 15.86C107.03 15.86 108.15 16.36 108.15 17.29C108.15 18.23 107.03 18.73 105.08 18.73C103.13 18.73 102.01 18.23 102.01 17.29C102.01 16.36 103.13 15.86 105.08 15.86ZM105.49 14.52H109.14V15.18H101.02V14.52H104.67V13.64H102.09V10.03H108.14V10.67H102.91V11.5H107.9V12.12H102.91V13H108.19V13.64H105.49V14.52Z" fill="black"/>
<path d="M140 14C140 19.5228 135.523 24 130 24C124.477 24 120 19.5228 120 14C120 8.47715 124.477 4 130 4C135.523 4 140 8.47715 140 14Z" fill="#1AB001"/>
<path d="M155.061 13.07L155.161 13.75C153.651 14.05 152.311 14.15 150.971 14.15H150.271V10.26H151.081V13.46C152.351 13.45 153.631 13.36 155.061 13.07ZM156.941 15.96H154.451C154.491 16.95 155.801 17.82 157.291 18.07L156.971 18.7C155.671 18.48 154.521 17.81 154.021 16.91C153.521 17.81 152.361 18.47 151.061 18.69L150.741 18.06C152.251 17.82 153.551 16.97 153.591 15.96H151.081V15.3H156.941V15.96ZM156.791 11.96H158.121V12.64H156.791V14.85H155.971V9.76H156.791V11.96ZM163.08 9.97C165.02 9.97 166.23 10.6 166.23 11.67C166.23 12.73 165.02 13.36 163.08 13.36C161.14 13.36 159.93 12.73 159.93 11.67C159.93 10.6 161.14 9.97 163.08 9.97ZM163.08 10.62C161.66 10.62 160.77 11.01 160.77 11.67C160.77 12.33 161.66 12.72 163.08 12.72C164.5 12.72 165.39 12.33 165.39 11.67C165.39 11.01 164.5 10.62 163.08 10.62ZM160.03 15.67H166.15V18.62H160.03V15.67ZM165.35 16.32H160.83V17.96H165.35V16.32ZM159.03 14.13H167.14V14.79H159.03V14.13Z" fill="black"/>
</svg>
