<svg width="18" height="24" viewBox="0 0 18 24" fill="none" xmlns="http://www.w3.org/2000/svg">
<path id="Vector" d="M2.00803e-07 2.99993V23.2495C-9.50907e-05 23.3797 0.0337268 23.5077 0.0981369 23.6209C0.162547 23.7341 0.255325 23.8286 0.367338 23.895C0.47935 23.9615 0.606737 23.9976 0.736957 23.9999C0.867178 24.0021 0.995744 23.9705 1.11 23.908L9 19.6031L16.89 23.908C17.0043 23.9705 17.1328 24.0021 17.263 23.9999C17.3933 23.9976 17.5206 23.9615 17.6327 23.895C17.7447 23.8286 17.8375 23.7341 17.9019 23.6209C17.9663 23.5077 18.0001 23.3797 18 23.2495V2.99993C18 2.2043 17.6839 1.44126 17.1213 0.87866C16.5587 0.316063 15.7956 0 15 0L3 0C2.20435 0 1.44129 0.316063 0.87868 0.87866C0.316071 1.44126 2.00803e-07 2.2043 2.00803e-07 2.99993Z" fill="black"/>
</svg>
