<svg width="17" height="20" viewBox="0 0 17 20" fill="none" xmlns="http://www.w3.org/2000/svg">
<path d="M5.46429 5.625C5.46429 3.89844 6.82277 2.5 8.5 2.5C9.71049 2.5 10.754 3.22656 11.2435 4.28516C11.5319 4.91016 12.2567 5.17578 12.86 4.87891C13.4634 4.58203 13.7252 3.83594 13.4368 3.21484C12.5603 1.31641 10.6819 0 8.5 0C5.48326 0 3.03571 2.51953 3.03571 5.625V7.5H2.42857C1.08906 7.5 0 8.62109 0 10V17.5C0 18.8789 1.08906 20 2.42857 20H14.5714C15.9109 20 17 18.8789 17 17.5V10C17 8.62109 15.9109 7.5 14.5714 7.5H5.46429V5.625Z" fill="#838383"/>
</svg>
