<svg width="13" height="15" viewBox="0 0 13 15" fill="none" xmlns="http://www.w3.org/2000/svg">
<path d="M4.17857 4.21875C4.17857 2.92383 5.21741 1.875 6.5 1.875C7.42567 1.875 8.22366 2.41992 8.59799 3.21387C8.81853 3.68262 9.37277 3.88184 9.83415 3.65918C10.2955 3.43652 10.4958 2.87695 10.2752 2.41113C9.60491 0.987305 8.16853 0 6.5 0C4.19308 0 2.32143 1.88965 2.32143 4.21875V5.625H1.85714C0.832813 5.625 0 6.46582 0 7.5V13.125C0 14.1592 0.832813 15 1.85714 15H11.1429C12.1672 15 13 14.1592 13 13.125V7.5C13 6.46582 12.1672 5.625 11.1429 5.625H4.17857V4.21875Z" fill="black"/>
</svg>
