<svg width="20" height="26" viewBox="0 0 20 26" fill="none" xmlns="http://www.w3.org/2000/svg">
<path d="M1 3.99993V24.2495C0.999905 24.3797 1.03373 24.5077 1.09814 24.6209C1.16255 24.7341 1.25532 24.8286 1.36734 24.895C1.47935 24.9615 1.60674 24.9976 1.73696 24.9999C1.86718 25.0022 1.99574 24.9705 2.11 24.908L10 20.6031L17.89 24.908C18.0043 24.9705 18.1328 25.0022 18.263 24.9999C18.3933 24.9976 18.5206 24.9615 18.6327 24.895C18.7447 24.8286 18.8375 24.7341 18.9019 24.6209C18.9663 24.5077 19.0001 24.3797 19 24.2495V3.99993C19 3.2043 18.6839 2.44126 18.1213 1.87866C17.5587 1.31606 16.7956 1 16 1H4C3.20435 1 2.44129 1.31606 1.87868 1.87866C1.31607 2.44126 1 3.2043 1 3.99993Z" fill="white"/>
<path d="M1 3.99993V24.2495C0.999905 24.3797 1.03373 24.5077 1.09814 24.6209C1.16255 24.7341 1.25532 24.8286 1.36734 24.895C1.47935 24.9615 1.60674 24.9976 1.73696 24.9999C1.86718 25.0022 1.99574 24.9705 2.11 24.908L10 20.6031L17.89 24.908C18.0043 24.9705 18.1328 25.0022 18.263 24.9999C18.3933 24.9976 18.5206 24.9615 18.6327 24.895C18.7447 24.8286 18.8375 24.7341 18.9019 24.6209C18.9663 24.5077 19.0001 24.3797 19 24.2495V3.99993C19 3.2043 18.6839 2.44126 18.1213 1.87866C17.5587 1.31606 16.7956 1 16 1H4C3.20435 1 2.44129 1.31606 1.87868 1.87866C1.31607 2.44126 1 3.2043 1 3.99993Z" stroke="black"/>
<path d="M1 3.99993V24.2495C0.999905 24.3797 1.03373 24.5077 1.09814 24.6209C1.16255 24.7341 1.25532 24.8286 1.36734 24.895C1.47935 24.9615 1.60674 24.9976 1.73696 24.9999C1.86718 25.0022 1.99574 24.9705 2.11 24.908L10 20.6031L17.89 24.908C18.0043 24.9705 18.1328 25.0022 18.263 24.9999C18.3933 24.9976 18.5206 24.9615 18.6327 24.895C18.7447 24.8286 18.8375 24.7341 18.9019 24.6209C18.9663 24.5077 19.0001 24.3797 19 24.2495V3.99993C19 3.2043 18.6839 2.44126 18.1213 1.87866C17.5587 1.31606 16.7956 1 16 1H4C3.20435 1 2.44129 1.31606 1.87868 1.87866C1.31607 2.44126 1 3.2043 1 3.99993Z" stroke="black" stroke-opacity="0.2"/>
</svg>
