<svg version="1.1" xmlns="http://www.w3.org/2000/svg" xmlns:xlink="http://www.w3.org/1999/xlink" width="500" height="500"><g data-paper-data="{&quot;description&quot;:&quot;Logo for FindOwn\n================\n\nThis logo was generated by MarkMaker at http://emblemmatic.org/markmaker/ and may be composed of elements designed by others.\n\nThe font is Encode Sans Compressed Black designed by Impallari Type and released under the OFL license via Google Fonts: https://www.google.com/fonts/specimen/Encode%20Sans%20Compressed. The font includes this copyright statement: Copyright (c) 2012, Impallari Type (www.impallari.com), with Reserved Font Name Encode Sans.\n\nMarkMaker uses semantic data from the Princeton University WordNet database http://wordnet.princeton.edu and font descriptions from Google Fonts https://www.google.com/fonts.&quot;}" fill="none" fill-rule="nonzero" stroke="none" stroke-width="none" stroke-linecap="butt" stroke-linejoin="miter" stroke-miterlimit="10" stroke-dasharray="" stroke-dashoffset="0" font-family="none" font-weight="none" font-size="none" text-anchor="none" style="mix-blend-mode: normal"><path d="M50,312.60198v-125.20395h400v125.20395z" fill="#7a9d8a" stroke-width="0"></path><g data-paper-data="{&quot;elementType&quot;:&quot;logo&quot;}" fill="#ffffff" stroke-width="1"><g data-paper-data="{&quot;elementType&quot;:&quot;text&quot;}"><g data-paper-data="{&quot;baseline&quot;:80.80000000000001,&quot;elementType&quot;:&quot;row&quot;}"><g data-paper-data="{&quot;baselineProportion&quot;:0.9877750611246944,&quot;fontSize&quot;:100,&quot;baseline&quot;:80.80000000000001,&quot;elementType&quot;:&quot;word&quot;}"><path d="M83.33333,225.59754h32.98984v11.59296h-19.03535v10.51954h16.81695v11.59296h-16.81695v19.25004h-13.95449z" data-paper-data="{&quot;elementType&quot;:&quot;letter&quot;,&quot;baseline&quot;:74,&quot;baselineProportion&quot;:1,&quot;fontSize&quot;:100}"></path><path d="M130.5639,239.90983h13.59668v38.64319h-13.59668zM137.36224,235.75927c-2.57621,0 -4.43681,-0.54864 -5.58179,-1.64591c-1.14498,-1.09728 -1.71748,-2.93402 -1.71748,-5.51023c0,-2.52851 0.56056,-4.3414 1.68169,-5.43867c1.12113,-1.09728 2.99365,-1.64591 5.61758,-1.64591c2.57621,0 4.44874,0.54864 5.61758,1.64591c1.16884,1.09728 1.75326,2.91017 1.75326,5.43867c0,2.52851 -0.57249,4.35332 -1.71748,5.47445c-1.14498,1.12113 -3.02944,1.68169 -5.65336,1.68169" data-paper-data="{&quot;elementType&quot;:&quot;letter&quot;,&quot;baseline&quot;:79.7,&quot;baselineProportion&quot;:1,&quot;fontSize&quot;:100}"></path><path d="M159.97567,239.90983h11.44984l0.71561,4.15057h0.28625c1.62206,-1.00186 3.00558,-1.82482 4.15057,-2.46887c1.14498,-0.64405 2.1707,-1.14498 3.07714,-1.50279c0.90645,-0.35781 1.76518,-0.59635 2.57621,-0.71561c0.81103,-0.11927 1.71748,-0.1789 2.71934,-0.1789c2.67163,0 4.8304,0.95415 6.47631,2.86246c1.64591,1.90831 2.46887,4.41296 2.46887,7.51395v28.9824h-13.59668v-23.97309c0,-1.33581 -0.25047,-2.27804 -0.7514,-2.82668c-0.50093,-0.54864 -1.13306,-0.82296 -1.89638,-0.82296c-0.6202,0 -1.27618,0.14312 -1.96794,0.42937c-0.69176,0.28625 -1.39545,0.6202 -2.11106,1.00186v26.1915h-13.59668z" data-paper-data="{&quot;elementType&quot;:&quot;letter&quot;,&quot;baseline&quot;:55,&quot;baselineProportion&quot;:1,&quot;fontSize&quot;:100}"></path><path d="M220.58824,279.19708c-8.20572,0 -12.30857,-6.15429 -12.30857,-18.46286c0,-7.25156 1.56243,-12.64253 4.68728,-16.17289c3.12485,-3.53037 7.90754,-5.29555 14.34807,-5.29555c0.33395,0 0.69176,0.01193 1.07342,0.03578c0.38166,0.02385 0.9303,0.05963 1.64591,0.10734v-18.67754h13.59668v57.82167h-12.52326l-0.71561,-3.86432h-0.35781c-2.28997,3.00558 -5.43867,4.50837 -9.44611,4.50837M225.88378,269.75097c0.85874,0 1.5505,-0.20276 2.07528,-0.60827c0.52478,-0.40552 0.94223,-1.14498 1.25233,-2.21841c0.3101,-1.07342 0.52478,-2.52851 0.64405,-4.36525c0.11927,-1.83674 0.1789,-4.2102 0.1789,-7.12037v-6.58366c-0.28625,-0.23854 -0.70369,-0.42937 -1.25233,-0.57249c-0.54864,-0.14312 -1.15691,-0.21468 -1.82482,-0.21468c-1.00186,0 -1.81289,0.14312 -2.43309,0.42937c-0.6202,0.28625 -1.1092,0.82296 -1.46701,1.61013c-0.35781,0.78718 -0.59635,1.89638 -0.71561,3.32761c-0.11927,1.43123 -0.1789,3.29183 -0.1789,5.58179c0,2.24226 0.04771,4.05515 0.14312,5.43867c0.09542,1.38352 0.28625,2.46887 0.57249,3.25605c0.28625,0.78718 0.66791,1.32389 1.14498,1.61013c0.47708,0.28625 1.09728,0.42937 1.8606,0.42937z" data-paper-data="{&quot;elementType&quot;:&quot;letter&quot;,&quot;baseline&quot;:80.80000000000001,&quot;baselineProportion&quot;:0.9889840881272949,&quot;fontSize&quot;:100}"></path><path d="M280.98612,279.26864c-7.68093,0 -13.382,-2.23033 -17.10319,-6.691c-3.7212,-4.46067 -5.58179,-11.27093 -5.58179,-20.4308c0,-9.20758 1.8606,-16.05362 5.58179,-20.53814c3.7212,-4.48452 9.42226,-6.72678 17.10319,-6.72678c7.82405,0 13.58475,2.21841 17.2821,6.65522c3.69734,4.43681 5.54601,11.30671 5.54601,20.6097c0,9.25528 -1.8606,16.0894 -5.58179,20.50236c-3.7212,4.41296 -9.46997,6.61944 -17.24631,6.61944M280.98612,267.89037c1.62206,0 2.9698,-0.26239 4.04322,-0.78718c1.07342,-0.52478 1.94409,-1.39545 2.61199,-2.61199c0.66791,-1.21655 1.14498,-2.82668 1.43123,-4.8304c0.28625,-2.00372 0.42937,-4.50837 0.42937,-7.51395c0,-3.05329 -0.1312,-5.60565 -0.39359,-7.65708c-0.26239,-2.05143 -0.72754,-3.68542 -1.39545,-4.90196c-0.66791,-1.21655 -1.5505,-2.07528 -2.64777,-2.57621c-1.09728,-0.50093 -2.45694,-0.7514 -4.079,-0.7514c-1.57435,0 -2.89824,0.26239 -3.97166,0.78718c-1.07342,0.52478 -1.93216,1.40738 -2.57621,2.64777c-0.64405,1.2404 -1.1092,2.87439 -1.39545,4.90196c-0.28625,2.02758 -0.42937,4.54415 -0.42937,7.54974c0,2.95787 0.14312,5.43867 0.42937,7.44239c0.28625,2.00372 0.7514,3.62578 1.39545,4.86618c0.64405,1.2404 1.50279,2.12299 2.57621,2.64777c1.07342,0.52478 2.39731,0.78718 3.97166,0.78718z" data-paper-data="{&quot;elementType&quot;:&quot;letter&quot;,&quot;baseline&quot;:75,&quot;baselineProportion&quot;:0.9868421052631579,&quot;fontSize&quot;:100}"></path><path d="M316.48061,240.19608v-0.28625h12.23701l2.21841,21.11063l0.42937,3.93588h0.9303l0.50093,-3.93588l3.36339,-21.11063h13.09575l3.36339,21.11063l0.50093,3.93588h0.9303l0.42937,-3.93588l2.21841,-21.11063h12.23701v0.28625l-6.8699,38.35695h-15.31415l-3.22027,-19.75097l-0.35781,-3.93588h-0.9303l-0.35781,3.93588l-3.22027,19.75097h-15.31415z" data-paper-data="{&quot;elementType&quot;:&quot;letter&quot;,&quot;baseline&quot;:54,&quot;baselineProportion&quot;:1,&quot;fontSize&quot;:100}"></path><path d="M382.74653,239.90983h11.44984l0.71561,4.15057h0.28625c1.62206,-1.00186 3.00558,-1.82482 4.15057,-2.46887c1.14498,-0.64405 2.1707,-1.14498 3.07714,-1.50279c0.90645,-0.35781 1.76518,-0.59635 2.57621,-0.71561c0.81103,-0.11927 1.71748,-0.1789 2.71934,-0.1789c2.67163,0 4.8304,0.95415 6.47631,2.86246c1.64591,1.90831 2.46887,4.41296 2.46887,7.51395v28.9824h-13.59668v-23.97309c0,-1.33581 -0.25047,-2.27804 -0.7514,-2.82668c-0.50093,-0.54864 -1.13306,-0.82296 -1.89638,-0.82296c-0.6202,0 -1.27618,0.14312 -1.96794,0.42937c-0.69176,0.28625 -1.39545,0.6202 -2.11106,1.00186v26.1915h-13.59668z" data-paper-data="{&quot;elementType&quot;:&quot;letter&quot;,&quot;baseline&quot;:55,&quot;baselineProportion&quot;:1,&quot;fontSize&quot;:100}"></path></g></g></g></g></g></svg>